<svg width="59" height="59" viewBox="0 0 59 59" fill="none" xmlns="http://www.w3.org/2000/svg">
<path d="M24.1363 8.04541H34.8636V10.7272H37.5454V13.409H40.2272V24.1363H37.5454V26.8181H34.8636V29.5H24.1363V26.8181H21.4545V24.1363H18.7727V13.409H21.4545V10.7272H24.1363V8.04541ZM26.8181 21.4545V24.1363H32.1818V21.4545H34.8636V16.0909H32.1818V13.409H26.8181V16.0909H24.1363V21.4545H26.8181ZM18.7727 32.1818H40.2272V34.8636H45.5909V37.5454H48.2727V40.2272H50.9545V50.9545H8.04541V40.2272H10.7272V37.5454H13.409V34.8636H18.7727V32.1818ZM16.0909 42.909H13.409V45.5909H45.5909V42.909H42.909V40.2272H37.5454V37.5454H21.4545V40.2272H16.0909V42.909Z" fill="white"/>
</svg>
